<svg width="20" height="20" viewBox="0 0 20 20" fill="none" xmlns="http://www.w3.org/2000/svg">
<path d="M3 3H4.55556L4.86667 4.55556M6.11111 10.7778H13.8889L17 4.55556H4.86667M6.11111 10.7778L4.86667 4.55556M6.11111 10.7778L4.32775 12.5611C3.83778 13.0511 4.1848 13.8889 4.87772 13.8889H13.8889M13.8889 13.8889C13.0298 13.8889 12.3333 14.5853 12.3333 15.4444C12.3333 16.3036 13.0298 17 13.8889 17C14.748 17 15.4444 16.3036 15.4444 15.4444C15.4444 14.5853 14.748 13.8889 13.8889 13.8889ZM7.66667 15.4444C7.66667 16.3036 6.97022 17 6.11111 17C5.252 17 4.55556 16.3036 4.55556 15.4444C4.55556 14.5853 5.252 13.8889 6.11111 13.8889C6.97022 13.8889 7.66667 14.5853 7.66667 15.4444Z" stroke="white" stroke-width="1.67" stroke-linecap="round" stroke-linejoin="round"/>
</svg>
